<svg xmlns="http://www.w3.org/2000/svg" xmlns:xlink="http://www.w3.org/1999/xlink" width="500" zoomAndPan="magnify" viewBox="0 0 375 374.999991" height="500" preserveAspectRatio="xMidYMid meet" version="1.2"><defs><clipPath id="9f0ef1d8a2"><path d="M 99 121 L 276 121 L 276 211.402344 L 99 211.402344 Z M 99 121 "/></clipPath></defs><g id="95bde55f0d"><g clip-rule="nonzero" clip-path="url(#9f0ef1d8a2)"><path style=" stroke:none;fill-rule:nonzero;fill:#00bf63;fill-opacity:1;" d="M 262.84375 124.933594 C 258.136719 122.101562 252.878906 121.390625 247.511719 121.390625 C 244.238281 121.390625 157.015625 121.335938 144.886719 121.335938 C 137.683594 121.332031 129.890625 120.652344 122.890625 122.625 C 113.992188 125.132812 106.433594 131.714844 102.5 140.042969 C 98.316406 148.898438 98.511719 159.019531 102.5 167.886719 C 106.308594 176.339844 114.101562 182.648438 122.890625 185.300781 C 126.902344 186.511719 132.246094 186.566406 132.246094 186.566406 C 133.84375 186.578125 136.457031 186.59375 138.058594 186.59375 L 142.738281 186.59375 L 142.738281 211.40625 L 167.546875 186.59375 L 231.328125 186.597656 C 232.929688 186.597656 234.238281 185.292969 234.238281 183.695312 L 234.238281 183.332031 C 234.238281 181.734375 232.929688 180.425781 231.328125 180.425781 C 231.328125 180.425781 199.113281 180.460938 173.609375 180.507812 C 170.597656 180.515625 167.675781 180.519531 164.914062 180.527344 L 158.847656 186.59375 L 148.890625 196.554688 L 148.890625 180.574219 C 145.460938 180.585938 142.976562 180.625 142.738281 180.632812 C 140.355469 180.746094 126.96875 181.183594 119.738281 177.433594 C 111.988281 173.417969 106.582031 165.496094 105.664062 156.808594 C 104.710938 147.742188 108.519531 139.070312 115.464844 133.273438 C 120.222656 129.300781 126.417969 127.488281 132.535156 127.488281 C 135.109375 127.488281 226.886719 127.542969 246.816406 127.542969 C 251.375 127.542969 255.632812 127.910156 259.734375 130.25 C 267.511719 134.683594 271.070312 144.066406 268.832031 152.609375 C 266.578125 161.207031 258.484375 167.039062 249.738281 167.148438 C 247.203125 167.175781 163.714844 167.171875 161.238281 167.128906 C 152.140625 166.96875 146.273438 156.808594 150.015625 148.734375 C 152.496094 143.375 160.398438 141.773438 160.398438 141.773438 C 161.960938 141.460938 164.550781 141.199219 166.148438 141.199219 L 230.871094 141.199219 C 232.46875 141.199219 233.777344 139.894531 233.777344 138.296875 L 233.777344 137.945312 C 233.777344 136.347656 232.46875 135.042969 230.871094 135.042969 L 168.75 135.042969 C 167.152344 135.042969 164.535156 135.058594 162.941406 135.074219 C 162.941406 135.074219 157.78125 135.128906 153.761719 136.832031 C 144.648438 140.679688 140.492188 151.964844 143.949219 160.980469 C 146.828125 168.503906 154.132812 173.296875 162.132812 173.296875 C 165.339844 173.296875 226.886719 173.300781 246.816406 173.300781 C 251.738281 173.300781 256.359375 172.820312 260.941406 170.753906 C 269.644531 166.828125 275.09375 157.839844 275.664062 148.484375 C 276.257812 138.929688 270.925781 129.796875 262.84375 124.933594 "/></g><g style="fill:#666666;fill-opacity:1;"><g transform="translate(226.897622, 268.835505)"><path style="stroke:none" d="M 7.96875 0.390625 C 5.976562 0.390625 4.382812 -0.0976562 3.1875 -1.078125 C 2 -2.066406 1.40625 -3.40625 1.40625 -5.09375 C 1.40625 -6.6875 1.9375 -7.96875 3 -8.9375 C 4.0625 -9.914062 5.488281 -10.40625 7.28125 -10.40625 L 13.125 -10.40625 L 13.125 -11.390625 C 13.125 -11.953125 12.878906 -12.421875 12.390625 -12.796875 C 11.898438 -13.171875 11.300781 -13.359375 10.59375 -13.359375 C 9.957031 -13.359375 9.414062 -13.195312 8.96875 -12.875 C 8.519531 -12.5625 8.253906 -12.15625 8.171875 -11.65625 L 2.265625 -11.65625 C 2.523438 -13.664062 3.363281 -15.195312 4.78125 -16.25 C 6.207031 -17.3125 8.132812 -17.84375 10.5625 -17.84375 C 13.363281 -17.84375 15.515625 -17.171875 17.015625 -15.828125 C 18.515625 -14.484375 19.265625 -12.578125 19.265625 -10.109375 L 19.265625 0 L 14.734375 0 L 14.046875 -1.90625 C 12.515625 -0.375 10.488281 0.390625 7.96875 0.390625 Z M 7.578125 -5.375 C 7.578125 -4.894531 7.785156 -4.507812 8.203125 -4.21875 C 8.617188 -3.925781 9.164062 -3.78125 9.84375 -3.78125 C 10.800781 -3.78125 11.597656 -4.070312 12.234375 -4.65625 C 12.867188 -5.25 13.1875 -6.015625 13.1875 -6.953125 L 9.78125 -6.953125 C 9.101562 -6.953125 8.566406 -6.816406 8.171875 -6.546875 C 7.773438 -6.273438 7.578125 -5.882812 7.578125 -5.375 Z M 7.578125 -5.375 "/></g></g><g style="fill:#666666;fill-opacity:1;"><g transform="translate(248.028896, 268.835505)"><path style="stroke:none" d="M -1.515625 7.546875 L -1.515625 2.140625 L 0 2.140625 C 1.550781 2.140625 2.328125 1.304688 2.328125 -0.359375 L 2.328125 -17.359375 L 8.625 -17.359375 L 8.625 -0.234375 C 8.625 4.953125 6.109375 7.546875 1.078125 7.546875 Z M 1.609375 -23.296875 C 1.609375 -24.390625 1.957031 -25.269531 2.65625 -25.9375 C 3.351562 -26.601562 4.257812 -26.9375 5.375 -26.9375 C 6.46875 -26.9375 7.367188 -26.601562 8.078125 -25.9375 C 8.796875 -25.269531 9.15625 -24.390625 9.15625 -23.296875 C 9.15625 -22.222656 8.796875 -21.34375 8.078125 -20.65625 C 7.367188 -19.96875 6.46875 -19.625 5.375 -19.625 C 4.257812 -19.625 3.351562 -19.96875 2.65625 -20.65625 C 1.957031 -21.34375 1.609375 -22.222656 1.609375 -23.296875 Z M 1.609375 -23.296875 "/></g></g><g style="fill:#666666;fill-opacity:1;"><g transform="translate(258.857031, 268.835505)"><path style="stroke:none" d="M 7.96875 0.390625 C 5.976562 0.390625 4.382812 -0.0976562 3.1875 -1.078125 C 2 -2.066406 1.40625 -3.40625 1.40625 -5.09375 C 1.40625 -6.6875 1.9375 -7.96875 3 -8.9375 C 4.0625 -9.914062 5.488281 -10.40625 7.28125 -10.40625 L 13.125 -10.40625 L 13.125 -11.390625 C 13.125 -11.953125 12.878906 -12.421875 12.390625 -12.796875 C 11.898438 -13.171875 11.300781 -13.359375 10.59375 -13.359375 C 9.957031 -13.359375 9.414062 -13.195312 8.96875 -12.875 C 8.519531 -12.5625 8.253906 -12.15625 8.171875 -11.65625 L 2.265625 -11.65625 C 2.523438 -13.664062 3.363281 -15.195312 4.78125 -16.25 C 6.207031 -17.3125 8.132812 -17.84375 10.5625 -17.84375 C 13.363281 -17.84375 15.515625 -17.171875 17.015625 -15.828125 C 18.515625 -14.484375 19.265625 -12.578125 19.265625 -10.109375 L 19.265625 0 L 14.734375 0 L 14.046875 -1.90625 C 12.515625 -0.375 10.488281 0.390625 7.96875 0.390625 Z M 7.578125 -5.375 C 7.578125 -4.894531 7.785156 -4.507812 8.203125 -4.21875 C 8.617188 -3.925781 9.164062 -3.78125 9.84375 -3.78125 C 10.800781 -3.78125 11.597656 -4.070312 12.234375 -4.65625 C 12.867188 -5.25 13.1875 -6.015625 13.1875 -6.953125 L 9.78125 -6.953125 C 9.101562 -6.953125 8.566406 -6.816406 8.171875 -6.546875 C 7.773438 -6.273438 7.578125 -5.882812 7.578125 -5.375 Z M 7.578125 -5.375 "/></g></g><g style="fill:#00bf63;fill-opacity:1;"><g transform="translate(85.557171, 268.835505)"><path style="stroke:none" d="M 2.421875 0 L 2.421875 -22.96875 L 9.0625 -22.96875 L 9.0625 -6.140625 L 18.4375 -6.140625 L 18.4375 0 Z M 2.421875 0 "/></g></g><g style="fill:#00bf63;fill-opacity:1;"><g transform="translate(104.818125, 268.835505)"><path style="stroke:none" d="M 7.96875 0.390625 C 5.976562 0.390625 4.382812 -0.0976562 3.1875 -1.078125 C 2 -2.066406 1.40625 -3.40625 1.40625 -5.09375 C 1.40625 -6.6875 1.9375 -7.96875 3 -8.9375 C 4.0625 -9.914062 5.488281 -10.40625 7.28125 -10.40625 L 13.125 -10.40625 L 13.125 -11.390625 C 13.125 -11.953125 12.878906 -12.421875 12.390625 -12.796875 C 11.898438 -13.171875 11.300781 -13.359375 10.59375 -13.359375 C 9.957031 -13.359375 9.414062 -13.195312 8.96875 -12.875 C 8.519531 -12.5625 8.253906 -12.15625 8.171875 -11.65625 L 2.265625 -11.65625 C 2.523438 -13.664062 3.363281 -15.195312 4.78125 -16.25 C 6.207031 -17.3125 8.132812 -17.84375 10.5625 -17.84375 C 13.363281 -17.84375 15.515625 -17.171875 17.015625 -15.828125 C 18.515625 -14.484375 19.265625 -12.578125 19.265625 -10.109375 L 19.265625 0 L 14.734375 0 L 14.046875 -1.90625 C 12.515625 -0.375 10.488281 0.390625 7.96875 0.390625 Z M 7.578125 -5.375 C 7.578125 -4.894531 7.785156 -4.507812 8.203125 -4.21875 C 8.617188 -3.925781 9.164062 -3.78125 9.84375 -3.78125 C 10.800781 -3.78125 11.597656 -4.070312 12.234375 -4.65625 C 12.867188 -5.25 13.1875 -6.015625 13.1875 -6.953125 L 9.78125 -6.953125 C 9.101562 -6.953125 8.566406 -6.816406 8.171875 -6.546875 C 7.773438 -6.273438 7.578125 -5.882812 7.578125 -5.375 Z M 7.578125 -5.375 "/></g></g><g style="fill:#00bf63;fill-opacity:1;"><g transform="translate(125.949399, 268.835505)"><path style="stroke:none" d="M 13.390625 0.5 C 12.453125 0.5 11.570312 0.375 10.75 0.125 C 9.925781 -0.113281 9.175781 -0.441406 8.5 -0.859375 L 8.5 6.5625 L 2.203125 6.5625 L 2.203125 -17.359375 L 6.734375 -17.359375 L 7.390625 -15.625 C 8.148438 -16.320312 9.035156 -16.863281 10.046875 -17.25 C 11.066406 -17.644531 12.179688 -17.84375 13.390625 -17.84375 C 15.140625 -17.84375 16.679688 -17.453125 18.015625 -16.671875 C 19.347656 -15.898438 20.390625 -14.828125 21.140625 -13.453125 C 21.898438 -12.078125 22.28125 -10.492188 22.28125 -8.703125 C 22.28125 -6.878906 21.898438 -5.28125 21.140625 -3.90625 C 20.390625 -2.53125 19.347656 -1.453125 18.015625 -0.671875 C 16.679688 0.109375 15.140625 0.5 13.390625 0.5 Z M 8.265625 -8.703125 C 8.265625 -7.535156 8.625 -6.578125 9.34375 -5.828125 C 10.070312 -5.085938 11.015625 -4.71875 12.171875 -4.71875 C 13.328125 -4.71875 14.265625 -5.085938 14.984375 -5.828125 C 15.710938 -6.578125 16.078125 -7.535156 16.078125 -8.703125 C 16.078125 -9.859375 15.710938 -10.800781 14.984375 -11.53125 C 14.265625 -12.269531 13.328125 -12.640625 12.171875 -12.640625 C 11.015625 -12.640625 10.070312 -12.269531 9.34375 -11.53125 C 8.625 -10.800781 8.265625 -9.859375 8.265625 -8.703125 Z M 8.265625 -8.703125 "/></g></g><g style="fill:#00bf63;fill-opacity:1;"><g transform="translate(149.246296, 268.835505)"><path style="stroke:none" d="M 11.125 0.5 C 9.113281 0.5 7.347656 0.113281 5.828125 -0.65625 C 4.304688 -1.425781 3.125 -2.503906 2.28125 -3.890625 C 1.4375 -5.273438 1.015625 -6.878906 1.015625 -8.703125 C 1.015625 -10.515625 1.4375 -12.109375 2.28125 -13.484375 C 3.125 -14.859375 4.304688 -15.925781 5.828125 -16.6875 C 7.347656 -17.457031 9.113281 -17.84375 11.125 -17.84375 C 13.132812 -17.84375 14.894531 -17.457031 16.40625 -16.6875 C 17.914062 -15.925781 19.09375 -14.859375 19.9375 -13.484375 C 20.78125 -12.109375 21.203125 -10.515625 21.203125 -8.703125 C 21.203125 -6.878906 20.78125 -5.273438 19.9375 -3.890625 C 19.09375 -2.503906 17.914062 -1.425781 16.40625 -0.65625 C 14.894531 0.113281 13.132812 0.5 11.125 0.5 Z M 7.1875 -8.703125 C 7.1875 -7.535156 7.554688 -6.578125 8.296875 -5.828125 C 9.046875 -5.085938 9.988281 -4.71875 11.125 -4.71875 C 12.28125 -4.71875 13.21875 -5.085938 13.9375 -5.828125 C 14.664062 -6.578125 15.03125 -7.535156 15.03125 -8.703125 C 15.03125 -9.859375 14.664062 -10.800781 13.9375 -11.53125 C 13.21875 -12.269531 12.28125 -12.640625 11.125 -12.640625 C 9.988281 -12.640625 9.046875 -12.269531 8.296875 -11.53125 C 7.554688 -10.800781 7.1875 -9.859375 7.1875 -8.703125 Z M 7.1875 -8.703125 "/></g></g><g style="fill:#00bf63;fill-opacity:1;"><g transform="translate(171.460387, 268.835505)"><path style="stroke:none" d="M 2.203125 0 L 2.203125 -17.359375 L 6.734375 -17.359375 L 7.515625 -15.1875 C 8.054688 -15.957031 8.734375 -16.507812 9.546875 -16.84375 C 10.359375 -17.1875 11.363281 -17.359375 12.5625 -17.359375 L 14.609375 -17.359375 L 14.609375 -11.71875 L 12.59375 -11.71875 C 11.195312 -11.71875 10.164062 -11.367188 9.5 -10.671875 C 8.832031 -9.984375 8.5 -8.898438 8.5 -7.421875 L 8.5 0 Z M 2.203125 0 "/></g></g><g style="fill:#00bf63;fill-opacity:1;"><g transform="translate(187.079156, 268.835505)"><path style="stroke:none" d="M 2.203125 0 L 2.203125 -17.359375 L 8.5 -17.359375 L 8.5 0 Z M 1.578125 -23.296875 C 1.578125 -24.390625 1.929688 -25.269531 2.640625 -25.9375 C 3.347656 -26.601562 4.25 -26.9375 5.34375 -26.9375 C 6.4375 -26.9375 7.335938 -26.601562 8.046875 -25.9375 C 8.765625 -25.269531 9.125 -24.390625 9.125 -23.296875 C 9.125 -22.222656 8.765625 -21.34375 8.046875 -20.65625 C 7.335938 -19.96875 6.4375 -19.625 5.34375 -19.625 C 4.25 -19.625 3.347656 -19.96875 2.640625 -20.65625 C 1.929688 -21.34375 1.578125 -22.222656 1.578125 -23.296875 Z M 1.578125 -23.296875 "/></g></g><g style="fill:#00bf63;fill-opacity:1;"><g transform="translate(197.77604, 268.835505)"><path style="stroke:none" d="M 2.203125 0 L 2.203125 -17.359375 L 6.734375 -17.359375 L 7.390625 -15.59375 C 8.015625 -16.3125 8.816406 -16.863281 9.796875 -17.25 C 10.785156 -17.644531 11.863281 -17.84375 13.03125 -17.84375 C 15.257812 -17.84375 17.023438 -17.148438 18.328125 -15.765625 C 19.628906 -14.378906 20.28125 -12.515625 20.28125 -10.171875 L 20.28125 0 L 13.984375 0 L 13.984375 -9.515625 C 13.984375 -10.546875 13.742188 -11.320312 13.265625 -11.84375 C 12.796875 -12.375 12.148438 -12.640625 11.328125 -12.640625 C 10.453125 -12.640625 9.757812 -12.351562 9.25 -11.78125 C 8.75 -11.207031 8.5 -10.398438 8.5 -9.359375 L 8.5 0 Z M 2.203125 0 "/></g></g></g></svg>